<?xml version="1.0" standalone="no"?>
<!DOCTYPE svg PUBLIC "-//W3C//DTD SVG 1.1//EN" 
"http://www.w3.org/Graphics/SVG/1.1/DTD/svg11.dtd">

<svg width="100%" height="100%" version="1.1" xmlns="http://www.w3.org/2000/svg">


                                 
                        <g id="Page-1" stroke="none" stroke-width="1" fill="none" fill-rule="evenodd">
                            <g id="timeline" transform="translate(1.000000, 0.000000)">
                                <g id="fish-wire" transform="translate(309.000000, 1.000000)" stroke="#070002"
                                    stroke-width="2">
                                    <path
                                        d="M147.08,1.99 C147.08,1.99 114.223,52.33 91.21,45.73 C78.162,47.78 42.693,138.242 0.572,121.328"
                                        id="Shape"></path>
                                    <path d="M147.08,2572.333 L147.08,0.23" id="Path"></path>
                                </g>
                                
                                <g id="group-1" transform="translate(67.000000, 2573.000000)">
                                    <g id="memento" transform="translate(300.000000, 66.000000)" fill-rule="nonzero">
                                        <path
                                            d="M10.07,10.495 C4.182,15.769 -0.812,21.495 0.378,23.427 C1.705,25.581 3.035,27.144 4.283,28.017 C5.483,28.932 7.065,29.605 9.081,29.997 C11.138,30.434 12.424,30.857 12.936,31.261 C13.4,31.709 13.782,32.059 14.073,32.401 C14.273,32.735 14.403,33.381 14.406,34.474 C14.3,36.922 14.008,40.536 13.526,45.41 C13.676,49.74 15.323,53.558 18.51,56.908 C32.965,72.103 45.696,89.16 59.285,105.133 L61.425,107.353 C67.301,109.509 74.068,107.373 81.859,100.995 L92.992,91.523 C99.332,86.213 102.269,80.263 101.848,73.635 C101.848,73.635 61.831,27.291 59.025,24.29 C54.155,19.258 49.535,16.203 45.115,15.163 C44.267,14.958 42.125,15.013 38.772,15.425 C36.025,15.659 34.134,15.415 33.115,14.515 C32.095,13.613 31.558,12.388 31.501,10.835 C31.591,9.161 31.596,7.979 31.521,7.2 C31.521,7.2 25.833,0.513 25.829,0.51 C24.613,-0.916 16.763,4.496 10.069,10.495 L10.07,10.495 Z"
                                            id="Shape" stroke="#000000" stroke-width="3" fill="#FFFFFF"></path>
                                        <path
                                            d="M32.867,46.428 C30.6,48.61 28.757,50.598 27.435,52.312 C27.685,52.605 28.198,53.01 28.975,53.527 C29.578,53.94 30.035,54.477 30.395,55.097 C30.929,55.231 31.609,55.832 32.565,56.955 C33.519,58.078 34.005,58.845 34.05,59.395 L40.323,66.769 C40.813,66.352 42.047,65.133 44.023,63.199 C45.509,61.683 46.833,60.469 48.041,59.613 C48.469,58.829 49.418,57.768 50.931,56.48 C52.348,55.276 53.547,54.51 54.391,54.213 C55.291,53.193 57.027,51.97 59.647,50.497 C61.843,49.219 63.267,47.923 64.007,46.619 C64.127,46.264 63.941,45.749 63.451,45.072 C62.821,44.43 62.356,43.982 62.065,43.642 C61.759,43.48 61.418,43.772 61.005,44.374 C60.635,45.026 60.21,45.219 59.772,45.002 C59.314,45.056 58.689,44.915 57.987,44.585 C57.105,44.24 56.527,44.058 56.159,44.119 C57.339,44.715 57.774,45.523 57.549,46.641 C57.272,47.801 56.584,47.881 55.572,46.891 C54.788,46.464 53.728,45.514 52.522,44.098 C51.235,42.583 50.467,41.384 50.172,40.542 C49.748,40.142 49.458,39.802 49.298,39.516 C49.058,39.133 49.218,38.828 49.782,38.6 C50.214,38.316 50.792,38.5 51.546,39.288 C52.342,40.125 52.912,40.398 53.344,40.115 C53.004,39.815 52.908,39.305 53.147,38.598 C53.427,37.938 53.853,37.746 54.422,38.018 C54.928,38.514 55.19,39.218 55.222,39.948 C55.225,41.04 55.312,41.638 55.389,41.826 C57.399,41.716 58.879,41.971 59.969,42.559 C59.854,41.732 58.962,40.387 57.196,38.607 C55.478,36.787 54.536,35.481 54.421,34.653 L51.554,31.283 C49.93,32.243 48.64,33.005 47.824,33.53 C46.34,34.457 45.029,35.49 43.94,36.583 L39.3,40.53 C36.315,43.158 34.2,45.126 32.867,46.428 Z M36.505,48.131 C38.075,48.396 39.991,49.459 42.203,51.367 C44.033,52.923 45.668,54.647 47.023,56.44 C46.055,57.18 44.893,56.904 43.626,55.71 C41.818,53.88 40.756,52.932 40.452,52.77 C40.548,53.28 41.052,54.366 42.012,55.99 C42.765,57.37 43.087,58.442 43.072,59.214 C42.575,59.72 42.025,59.766 41.324,59.437 C40.63,59.017 40.102,58.792 39.7,58.715 C39.734,58.855 39.954,59.508 40.458,60.595 C40.851,61.355 40.71,61.98 39.993,62.422 C38.757,61.959 37.461,60.535 36.1,58.242 C34.768,55.588 33.772,53.824 33.033,52.855 C33.968,51.975 35.019,51.925 36.233,52.658 C36.835,53.071 37.813,53.923 39.081,55.118 C39.051,54.386 38.554,53.21 37.593,51.586 C36.715,50.058 36.399,48.896 36.506,48.131 L36.505,48.131 Z M47.552,47.067 C46.222,45.504 45.372,44.207 45,43.177 C44.66,42.877 44.64,42.557 44.802,42.251 C45.409,41.481 45.959,41.435 46.318,42.055 C47.151,42.44 48.253,43.44 49.582,45.002 C51.272,47.186 52.262,48.449 52.642,48.798 C53.298,47.986 54.246,47.518 55.616,47.445 C56.059,48.165 55.722,48.955 54.606,49.82 C53.539,50.644 52.654,50.89 51.904,50.602 C51.806,50.685 51.501,50.525 50.981,50.21 C50.068,49.727 48.924,48.68 47.553,47.068 L47.552,47.067 Z M41.926,45.204 C42.806,44.456 43.474,44.054 44.024,44.008 C44.344,45.671 45.208,47.378 46.614,49.128 C48.101,50.978 49.606,52.053 51.128,52.358 C50.538,53.448 49.611,54.238 48.393,54.685 C47.628,52.895 46.396,51.249 44.878,49.762 C43.228,48.222 41.708,47.324 40.311,47.166 C40.496,46.59 41.048,45.953 41.927,45.206 L41.926,45.204 Z"
                                            id="Shape" fill="#FF5264"></path>
                                        <path
                                            d="M60.693,45.797 C59.723,46.537 59.485,47.247 59.893,47.825 C61.171,48.338 62.736,48.1 64.583,47.202 C65.635,46.559 67.259,45.599 69.51,44.189 C68.923,43.003 67.787,41.866 66.01,40.769 C63.84,39.502 62.506,38.529 61.918,37.937 C61.858,37.567 61.824,36.837 61.738,35.647 C61.721,34.737 61.606,33.909 61.295,33.247 C59.592,32.927 57.402,33.024 54.757,33.675 C54.872,34.503 55.481,35.415 56.631,36.373 C58.121,37.63 59.051,38.523 59.327,39.046 C59.911,39.139 60.723,39.796 61.719,40.968 C62.584,42.083 63.103,42.988 63.273,43.684 L62.931,43.974 C62.828,44.149 62.096,44.772 60.694,45.794 L60.693,45.797 Z"
                                            id="Shape" fill="#FF5264"></path>
                                        <path
                                            d="M29.262,56.544 C28.045,58.674 27.669,60.509 28.178,62.096 C28.558,62.446 29.274,62.594 30.318,62.632 C31.228,62.615 31.931,62.944 32.421,63.622 C32.725,64.372 33.181,65.502 33.696,66.999 C34.226,68.313 34.994,69.512 35.916,70.497 C37.133,70.049 38.346,69.102 39.686,67.709 C41.433,65.803 42.661,64.674 43.336,64.182 L41.592,62.13 C41.142,62.096 40.57,62.413 39.837,63.036 C38.999,63.833 38.365,64.372 37.933,64.656 C37.81,64.51 37.421,64.251 36.763,63.971 C36.178,63.879 35.458,63.231 34.593,62.114 C33.436,60.656 32.729,59.824 32.473,59.624 C31.815,58.754 31.275,58.117 30.901,57.678 C30.321,56.994 29.759,56.63 29.265,56.545 L29.262,56.544 Z"
                                            id="Shape" fill="#FF5465"></path>
                                        <path
                                            d="M52.44,64.098 C52.62,65.796 53.646,67.198 55.422,68.296 C58.362,70.17 60.948,69.151 63.132,65.188 C65.267,61.268 64.442,58.518 60.666,56.848 C59.742,56.454 58.65,56.458 57.488,56.774 C55.948,57.241 54.631,58.364 53.588,60.007 C52.658,61.387 52.271,62.811 52.44,64.097 L52.44,64.098 Z M68.38,71.75 C71.558,67.868 72.802,64.284 72.168,60.867 C73.291,59.911 73.878,59.413 73.982,59.24 C74.492,58.554 74.412,57.865 73.682,57.305 C72.952,57.337 71.866,57.841 70.34,58.718 C68.772,59.548 67.595,60.043 66.9,60.215 C66.85,60.848 67.14,61.19 67.757,61.421 C68.507,61.711 69.027,62.025 69.235,62.269 C70.052,65.109 69.013,67.846 66.069,70.519 C63.319,73.026 60.449,74.205 57.419,74.006 C61.245,76.726 64.899,75.974 68.379,71.752 L68.38,71.75 Z"
                                            id="Shape" fill="#FF5264"></path>
                                        <path
                                            d="M5.722,21.25 C5.722,21.25 6.056,21.03 6.599,20.642 C7.146,20.289 7.893,19.698 8.799,19.088 L10.219,18.023 C10.472,17.843 10.733,17.66 10.999,17.473 L11.779,16.846 C12.311,16.424 12.863,16.001 13.437,15.59 C13.997,15.16 14.529,14.67 15.087,14.22 L16.774,12.89 C17.292,12.403 17.82,11.945 18.339,11.504 C18.859,11.064 19.375,10.649 19.875,10.261 C20.372,9.871 20.78,9.438 21.207,9.081 C22.047,8.353 22.791,7.765 23.337,7.366 C23.879,6.964 24.221,6.751 24.221,6.751 C24.221,6.751 24.091,7.117 23.811,7.728 C23.534,8.341 23.101,9.201 22.529,10.21 C22.229,10.702 21.939,11.27 21.536,11.79 C21.126,12.307 20.686,12.847 20.213,13.393 C19.74,13.939 19.245,14.501 18.723,15.051 C18.177,15.581 17.563,16.054 16.973,16.553 C16.36,17.025 15.781,17.538 15.137,17.948 C14.487,18.352 13.837,18.731 13.205,19.085 C12.885,19.258 12.582,19.443 12.265,19.592 C11.942,19.728 11.625,19.862 11.315,19.99 C10.695,20.237 10.111,20.468 9.559,20.646 C8.993,20.801 8.469,20.918 8.007,21.02 C7.557,21.14 7.123,21.168 6.787,21.208 C6.111,21.288 5.721,21.252 5.721,21.252 L5.722,21.25 Z"
                                            id="Shape" fill="#251B18"></path>
                                    </g>
                                    <g id="date" transform="translate(0.000000, 158.000000)">
                                        <path
                                            d="M0.388,91.692 C1.551,83.652 0.021,4.306 0.021,4.306 C0.021,4.306 186.113,3.62 189.917,3.67 C221.475,1.543 251.044,-2.462 280.995,3.438 C277.562,18.498 281.829,75.321 279.29,90.611 C260.767,81.111 231.603,88.749 211.018,89.033 C199.161,88.77 185.755,85.303 173.208,89.689 L0.388,91.693 L0.388,91.692 Z M265.34,17.397 C262.782,17.079 260.45,18.895 260.133,21.452 C259.815,24.01 261.631,26.342 264.188,26.66 C266.746,26.978 269.078,25.162 269.395,22.604 C269.713,20.046 267.897,17.714 265.34,17.397 Z"
                                            id="Shape" stroke="#020202" stroke-width="2" fill="#FFFFFF"
                                            fill-rule="nonzero"></path>
                                        <g id="2014-4-+-2014-4-label" transform="translate(25.000000, 17.000000)"
                                            fill="#000000" font-size="25" font-weight="normal">
                                            <g id="2014-4"
                                                transform="translate(28.710903, 16.197342) rotate(-0.540000) translate(-28.710903, -16.197342) translate(0.210903, 0.697342)"
                                                font-family="Helvetica">
                                                <text id="2015">
                                                    <tspan x="0.024" y="24.963">2015</tspan>
                                                </text>
                                            </g>
                                            <g id="2014-4-label"
                                                transform="translate(76.019829, 48.752918) rotate(-0.540000) translate(-76.019829, -48.752918) translate(0.519829, 31.252918)"
                                                font-family="STYuanti-SC-Regular, Yuanti SC">
                                                <text id="刘看山大事记">
                                                    <tspan x="0.08" y="26.864">刘看山大事记</tspan>
                                                </text>
                                            </g>
                                        </g>
                                    </g>
                                    <path d="M334.988,141.603 C334.988,141.603 315.141,178.041 265.571,179.52"
                                        id="rope-2" stroke="#020202" stroke-width="2"></path>
                                    <path d="M389,0 C389,0 376.42,76.88 345,80" id="rope-1" stroke="#020202"
                                        stroke-width="2"></path>
                                </g>
                                <g id="group-2" transform="translate(456.000000, 2254.000000)">
                                    <g id="date" transform="translate(198.000000, 147.000000)">
                                        <path
                                            d="M70.359963,92.053 C62.2796589,87.906 53.7450455,91.623 46.1625618,92.109 C32.989516,92.209 14.2393455,85.123 2.50409224,94.969 C0.695813847,79.729 2.74276452,22.836 0.365,7.844 C19.4555824,1.382 38.4207499,4.831 58.6362274,6.364 C61.0690209,6.244 242.183523,0.518 242.183523,0.518 C242.183523,0.518 242.157928,79.878 243,87.895 L70.359963,92.051 L70.359963,92.053 Z M8.01595003,26.791 C8.2501432,29.343 9.76280071,31.115 11.396394,30.749 C13.0280678,30.383 14.161921,28.019 13.9277278,25.466 C13.6941745,22.916 12.1808772,21.144 10.5492035,21.51 C8.91625,21.875 7.78239673,24.24 8.0165899,26.79 L8.01595003,26.791 Z"
                                            id="Shape" stroke="#020202" stroke-width="3" fill="#FFFFFF"
                                            fill-rule="nonzero"></path>
                                        <g id="2014-6-+-2014-6-label" transform="translate(32.000000, 17.000000)"
                                            fill="#000000" font-family="STYuanti-SC-Regular, Yuanti SC" font-size="25"
                                            font-weight="normal">
                                            <g id="2014-6"
                                                transform="translate(25.505818, 18.335753) rotate(-0.540000) translate(-25.505818, -18.335753) translate(0.505818, 0.835753)">
                                                <text id="2015">
                                                    <tspan x="0.061" y="26.024">2015</tspan>
                                                </text>
                                            </g>
                                            <g id="2014-6-label"
                                                transform="translate(88.823458, 51.740491) rotate(-0.540000) translate(-88.823458, -51.740491) translate(0.823458, 34.240491)">
                                                <text id="刘看山日本游记">
                                                    <tspan x="0.08" y="26.926">刘看山日本游记</tspan>
                                                </text>
                                            </g>
                                        </g>
                                    </g>
                                    <g id="memento" transform="translate(67.000000, 43.000000)" fill-rule="nonzero">
                                        <path
                                            d="M81.646,20.538 C82.039,21.39 82.496,22.831 83.086,24.991 C79.812,26.171 78.109,26.761 78.044,26.761 C76.472,27.744 75.884,29.447 76.276,31.739 C76.538,31.804 76.669,32.132 76.669,32.589 C76.734,32.787 76.734,33.179 76.734,33.703 C77.192,35.013 77.716,37.173 78.174,40.121 C78.764,43.265 79.878,48.307 81.514,55.183 C83.021,61.536 84.004,66.578 84.594,70.443 C79.288,71.555 70.382,74.24 57.744,78.367 C46.74,81.837 37.572,84.13 30.172,85.177 C28.142,86.292 25.195,86.16 21.266,84.784 C19.629,81.314 17.796,73.979 15.83,62.78 C14.063,52.89 11.64,46.21 8.627,42.61 C8.431,42.544 7.383,42.61 5.615,42.74 C4.371,42.74 3.585,42.544 3.257,42.085 C0.965,42.413 0.114,38.81 0.767,31.28 C1.097,27.415 2.471,23.486 4.763,19.426 C7.121,15.562 9.347,13.139 11.508,12.156 C18.778,5.936 28.928,2.202 41.96,0.893 C42.942,0.565 44.45,0.369 46.61,0.369 C48.77,0.369 50.277,0.564 51.26,0.892 C66.78,2.004 76.865,8.552 81.646,20.537 L81.646,20.538 Z"
                                            id="Shape" stroke="#000000" stroke-width="3" fill="#FFDA64"></path>
                                        <path
                                            d="M52.24,22.504 C53.748,24.404 54.992,24.337 56.106,22.307 C57.219,20.343 56.564,19.23 54.141,19.033 C53.291,19.623 52.766,20.081 52.636,20.278 C52.176,20.866 52.046,21.586 52.242,22.504 L52.24,22.504 Z M32.136,23.027 C31.808,23.355 31.612,23.944 31.612,24.797 C31.612,25.582 31.808,26.107 32.136,26.432 C33.642,26.629 34.428,25.974 34.559,24.468 C34.034,23.355 33.249,22.898 32.135,23.028 L32.136,23.027 Z M30.695,31.803 C28.141,33.309 26.505,35.405 25.783,37.959 C24.933,40.905 25.586,43.917 27.748,47.061 C27.944,47.389 28.534,47.257 29.648,46.733 C30.761,46.275 31.548,46.34 32.136,47.061 C32.66,47.716 32.66,48.371 32.202,49.091 C31.482,50.205 31.088,50.859 31.088,50.925 C34.886,54.723 41.435,56.491 50.67,56.295 C52.438,54.657 55.91,51.645 61.017,47.255 C64.947,42.673 66.387,37.892 65.405,32.849 C64.422,27.676 61.017,25.317 55.189,25.907 C49.359,26.43 46.215,29.377 45.823,34.813 C44.055,32.193 41.633,30.688 38.685,30.295 C35.868,29.903 33.248,30.425 30.695,31.802 L30.695,31.803 Z M30.825,33.571 C31.219,32.524 32.005,32.131 33.118,32.328 C33.708,33.178 33.772,34.095 33.445,35.078 C33.052,36.126 32.267,36.518 31.087,36.191 C30.565,35.406 30.499,34.555 30.827,33.571 L30.825,33.571 Z M61.54,38.681 C62.13,39.401 62.26,40.186 61.802,40.906 C61.409,41.756 60.689,42.02 59.576,41.626 C59.446,40.12 59.641,39.136 60.099,38.679 L61.539,38.679 L61.54,38.681 Z M42.352,43.788 C44.252,43.33 45.365,43.985 45.822,45.621 C45.692,46.865 44.972,47.717 43.728,48.175 C42.484,48.633 41.37,48.437 40.388,47.52 C39.864,45.424 40.518,44.18 42.352,43.787 L42.352,43.788 Z M66.91,48.96 C66.78,47.455 66.452,46.67 65.928,46.54 C65.47,46.472 65.011,46.735 64.553,47.455 C64.16,48.175 64.093,48.765 64.357,49.158 C64.815,49.616 65.667,49.551 66.911,48.961 L66.91,48.96 Z"
                                            id="Shape" fill="#D27E3A"></path>
                                        <path
                                            d="M41.894,1.023 L51.194,1.023 C50.21,0.563 48.704,0.368 46.608,0.368 C44.448,0.368 42.876,0.564 41.894,1.023 Z"
                                            id="Shape" fill="#1E1B11"></path>
                                        <path
                                            d="M31.088,36.19 C32.268,36.517 33.053,36.125 33.446,35.077 C33.774,34.094 33.708,33.177 33.119,32.327 C32.004,32.13 31.219,32.523 30.826,33.571 C30.498,34.555 30.564,35.406 31.086,36.191 L31.088,36.19 Z M59.576,41.626 C60.689,42.019 61.41,41.756 61.802,40.906 C62.26,40.186 62.13,39.4 61.54,38.68 L60.1,38.68 C59.64,39.137 59.445,40.12 59.576,41.626 Z"
                                            id="Shape" fill="#FFDA64"></path>
                                        <path
                                            d="M45.365,60.683 C45.955,57.868 45.169,56.82 42.941,57.54 C40.715,58.39 40.388,59.767 41.895,61.73 C42.681,61.863 43.335,61.796 43.859,61.535 C44.187,61.403 44.711,61.142 45.366,60.683 L45.365,60.683 Z M19.89,26.892 C18.646,27.088 17.925,27.808 17.598,29.052 C17.271,30.362 17.533,31.475 18.318,32.328 C20.218,32.524 21.592,32.196 22.313,31.345 C22.443,28.66 21.658,27.219 19.89,26.892 Z"
                                            id="Shape" fill="#D27E3A"></path>
                                        <path
                                            d="M45.823,45.62 C45.365,43.985 44.253,43.33 42.353,43.788 C40.518,44.181 39.863,45.424 40.387,47.52 C41.37,48.437 42.483,48.633 43.727,48.175 C44.971,47.717 45.692,46.865 45.823,45.621 L45.823,45.62 Z"
                                            id="Shape" fill="#FFDA64"></path>
                                    </g>
                                    <path d="M148.42,114.184 C148.42,114.184 166.466,168.567 214.733,173.284"
                                        id="rope-2" stroke="#020202" stroke-width="3"></path>
                                    <path d="M0,0 C0,0 19.593,79.137 72,86" id="rope-1" stroke="#020202"
                                        stroke-width="3"></path>
                                </g>
                                
                                
                               
                               
                                
                                <circle id="group-1-lock-1" fill="#D8D8D8" fill-rule="nonzero" opacity="0.01" cx="456"
                                    cy="2573" r="3"></circle>
                                <circle id="group-1-lock-2" fill="#D8D8D8" fill-rule="nonzero" opacity="0.01" cx="418"
                                    cy="2655" r="3"></circle>
                                <circle id="group-1-lock-3" fill="#D8D8D8" fill-rule="nonzero" opacity="0.01" cx="402"
                                    cy="2715" r="3"></circle>
                                <circle id="group-1-lock-4" fill="#D8D8D8" fill-rule="nonzero" opacity="0.01" cx="333"
                                    cy="2753" r="3"></circle>
                                <circle id="group-2-lock-1" fill="#D8D8D8" fill-rule="nonzero" opacity="0.01" cx="456"
                                    cy="2253" r="3"></circle>
                                <circle id="group-2-lock-2" fill="#D8D8D8" fill-rule="nonzero" opacity="0.01" cx="526"
                                    cy="2339" r="3"></circle>
                                <circle id="group-2-lock-3" fill="#D8D8D8" fill-rule="nonzero" opacity="0.01" cx="605"
                                    cy="2368" r="3"></circle>
                                <circle id="group-2-lock-4" fill="#D8D8D8" fill-rule="nonzero" opacity="0.01" cx="672"
                                    cy="2427" r="3"></circle>
                                <circle id="group-3-lock-1" fill="#D8D8D8" fill-rule="nonzero" opacity="0.01" cx="456"
                                    cy="1852" r="3"></circle>
                                <circle id="group-3-lock-2" fill="#D8D8D8" fill-rule="nonzero" opacity="0.01" cx="379"
                                    cy="1918" r="3"></circle>
                                <circle id="group-3-lock-3" fill="#D8D8D8" fill-rule="nonzero" opacity="0.01" cx="303"
                                    cy="2042" r="3"></circle>
                                <circle id="group-3-lock-4" fill="#D8D8D8" fill-rule="nonzero" opacity="0.01" cx="262"
                                    cy="2077" r="3"></circle>
                                <circle id="group-4-lock-1" fill="#D8D8D8" fill-rule="nonzero" opacity="0.01" cx="456"
                                    cy="1505" r="3"></circle>
                                <circle id="group-4-lock-2" fill="#D8D8D8" fill-rule="nonzero" opacity="0.01" cx="523"
                                    cy="1599" r="3"></circle>
                                <circle id="group-4-lock-3" fill="#D8D8D8" fill-rule="nonzero" opacity="0.01" cx="638"
                                    cy="1668" r="3"></circle>
                                <circle id="group-4-lock-4" fill="#D8D8D8" fill-rule="nonzero" opacity="0.01" cx="674"
                                    cy="1702" r="3"></circle>
                                <circle id="group-5-lock-1" fill="#D8D8D8" fill-rule="nonzero" opacity="0.01" cx="456"
                                    cy="1143" r="3"></circle>
                                <circle id="group-5-lock-2" fill="#D8D8D8" fill-rule="nonzero" opacity="0.01" cx="382"
                                    cy="1204" r="3"></circle>
                                <circle id="group-5-lock-3" fill="#D8D8D8" fill-rule="nonzero" opacity="0.01" cx="277"
                                    cy="1287" r="3"></circle>
                                <circle id="group-5-lock-4" fill="#D8D8D8" fill-rule="nonzero" opacity="0.01" cx="338"
                                    cy="1241" r="3"></circle>
                                <circle id="group-6-lock-1" fill="#D8D8D8" fill-rule="nonzero" opacity="0.01" cx="456"
                                    cy="798" r="3"></circle>
                                <circle id="group-6-lock-2" fill="#D8D8D8" fill-rule="nonzero" opacity="0.01" cx="521"
                                    cy="853" r="3"></circle>
                                <circle id="group-6-lock-3" fill="#D8D8D8" fill-rule="nonzero" opacity="0.01" cx="625"
                                    cy="911" r="3"></circle>
                                <circle id="group-6-lock-4" fill="#D8D8D8" fill-rule="nonzero" opacity="0.01" cx="674"
                                    cy="956" r="3"></circle>
                                <circle id="group-7-lock-1" fill="#D8D8D8" fill-rule="nonzero" opacity="0.01" cx="456"
                                    cy="484" r="3"></circle>
                                <circle id="group-7-lock-2" fill="#D8D8D8" fill-rule="nonzero" opacity="0.01" cx="395"
                                    cy="524" r="3"></circle>
                                <circle id="group-7-lock-3" fill="#D8D8D8" fill-rule="nonzero" opacity="0.01" cx="369"
                                    cy="610" r="3"></circle>
                                <circle id="group-7-lock-4" fill="#D8D8D8" fill-rule="nonzero" opacity="0.01" cx="274"
                                    cy="651" r="3"></circle>
                                <circle id="lock-wire-top" fill="#D8D8D8" fill-rule="nonzero" opacity="0.01" cx="456"
                                    cy="3" r="3"></circle>
                            </g>
                        </g>


</svg>